<?xml version="1.0" encoding="UTF-8" standalone="no"?>
<svg
   id="svg8"
   version="1.1"
   height="496"
   width="496"
   sodipodi:docname="slackware-logo-symbolic.svg"
   inkscape:version="1.4.2 (ebf0e940d0, 2025-05-08)"
   xmlns:inkscape="http://www.inkscape.org/namespaces/inkscape"
   xmlns:sodipodi="http://sodipodi.sourceforge.net/DTD/sodipodi-0.dtd"
   xmlns="http://www.w3.org/2000/svg"
   xmlns:svg="http://www.w3.org/2000/svg"
   xmlns:rdf="http://www.w3.org/1999/02/22-rdf-syntax-ns#"
   xmlns:cc="http://creativecommons.org/ns#"
   xmlns:dc="http://purl.org/dc/elements/1.1/">
  <sodipodi:namedview
     id="namedview1"
     pagecolor="#ffffff"
     bordercolor="#000000"
     borderopacity="0.25"
     inkscape:showpageshadow="2"
     inkscape:pageopacity="0.0"
     inkscape:pagecheckerboard="0"
     inkscape:deskcolor="#d1d1d1"
     inkscape:zoom="0.6951193"
     inkscape:cx="276.93088"
     inkscape:cy="174.79014"
     inkscape:window-width="1699"
     inkscape:window-height="990"
     inkscape:window-x="20"
     inkscape:window-y="20"
     inkscape:window-maximized="0"
     inkscape:current-layer="layer2" />
  <metadata
     id="metadata14">
    <rdf:RDF>
      <cc:Work
         rdf:about="">
        <dc:format>image/svg+xml</dc:format>
        <dc:type
           rdf:resource="http://purl.org/dc/dcmitype/StillImage" />
      </cc:Work>
    </rdf:RDF>
  </metadata>
  <defs
     id="defs12">
    <linearGradient
       id="linearGradient3322">
      <stop
         style="stop-color:#313163;stop-opacity:1;"
         offset="0"
         id="stop3324" />
      <stop
         id="stop3330"
         offset="0.98000002"
         style="stop-color:#313163;stop-opacity:0.99607843;" />
      <stop
         style="stop-color:#bcbcde;stop-opacity:0.99163181;"
         offset="1"
         id="stop3326" />
    </linearGradient>
    <linearGradient
       id="linearGradient2456">
      <stop
         style="stop-color:#596dbd;stop-opacity:1;"
         offset="0"
         id="stop2458" />
      <stop
         id="stop3242"
         offset="0.75"
         style="stop-color:#4f63b3;stop-opacity:1;" />
      <stop
         style="stop-color:#4f63b3;stop-opacity:1;"
         offset="1"
         id="stop2460" />
    </linearGradient>
    <linearGradient
       id="linearGradient3194">
      <stop
         style="stop-color:#5468b8;stop-opacity:1;"
         offset="0"
         id="stop3196" />
      <stop
         id="stop3214"
         offset="0.66000003"
         style="stop-color:#212142;stop-opacity:1;" />
      <stop
         style="stop-color:#212142;stop-opacity:1;"
         offset="1"
         id="stop3198" />
    </linearGradient>
  </defs>
  <g
     inkscape:groupmode="layer"
     id="layer2"
     inkscape:label="logo"
     style="display:inline"
     transform="matrix(0.7990114,0,0,0.7912642,3.0959497,7.1939473)">
    <path
       id="path3316"
       style="display:inline;fill:#cccccc;fill-opacity:1;stroke-width:3.09706"
       inkscape:label="#path2454"
       d="M 306.50883,-5.7717073 A 304.17449,310.10391 0 0 0 91.425911,85.055852 a 304.17449,310.10391 0 0 0 -1e-5,438.551018 304.17449,310.10391 0 0 0 430.165849,1e-5 304.17449,310.10391 0 0 0 0,-438.551028 A 304.17449,310.10391 0 0 0 306.50883,-5.7717073 Z M 305.18325,109.92048 c 25.73837,0.50707 51.58775,4.14578 75.47486,13.85109 10.55312,-15.0498 43.63488,-19.3475 50.85393,6.37459 -0.79557,22.70731 2.21395,42.49405 0.26304,65.0688 -11.0286,24.1733 -43.31414,9.67862 -51.52064,-14.55587 -13.4599,-29.2094 -46.30847,-32.60847 -73.11278,-35.03401 -29.34734,0.27696 -66.23768,5.77512 -80.98813,35.50475 -12.74976,20.10261 0.77527,45.49733 19.95405,55.05456 35.44082,20.36299 77.17041,13.64563 115.65903,20.4992 39.13108,6.54309 81.28817,33.73329 84.02995,77.6681 2.9546,47.74904 -38.57527,84.4662 -80.67563,95.87937 -49.03983,9.85825 -102.72361,9.90712 -148.81942,-12.12068 l -1.26048,4.4417 c -5.21238,27.32809 -49.46822,22.77079 -53.02329,-3.61069 -0.14258,-22.96536 -0.28456,-45.92974 -0.42711,-68.89514 -4.687,-17.44704 13.02765,-29.58503 29.12114,-25.41425 25.72256,7.30975 20.50467,42.12932 41.30922,55.81458 27.36666,22.72607 65.83291,22.98967 99.25462,19.22637 27.38791,-2.67801 58.3353,-15.91986 65.04209,-46.12382 9.05254,-27.15023 -20.71161,-52.21056 -45.41098,-55.4806 -43.29206,-6.35098 -89.47331,-3.06838 -129.50862,-24.173 -33.48581,-14.9658 -60.76973,-53.95159 -47.77306,-91.89524 15.28949,-44.65298 63.22137,-65.31404 105.93462,-71.65116 8.47827,-0.41836 17.04412,-0.59768 25.62359,-0.42865 z M 104.28067,384.1651 h 9.56555 v 94.38039 H 505.1639 v 9.65658 l -391.31768,-10e-6 h -9.56555 v -9.65657 z" />
  </g>
</svg>
