<?xml version="1.0" encoding="UTF-8" standalone="no"?>
<svg
   id="svg8"
   version="1.1"
   height="496"
   width="496"
   sodipodi:docname="slackware-logo.svg"
   inkscape:version="1.4.2 (ebf0e940d0, 2025-05-08)"
   xmlns:inkscape="http://www.inkscape.org/namespaces/inkscape"
   xmlns:sodipodi="http://sodipodi.sourceforge.net/DTD/sodipodi-0.dtd"
   xmlns:xlink="http://www.w3.org/1999/xlink"
   xmlns="http://www.w3.org/2000/svg"
   xmlns:svg="http://www.w3.org/2000/svg"
   xmlns:rdf="http://www.w3.org/1999/02/22-rdf-syntax-ns#"
   xmlns:cc="http://creativecommons.org/ns#"
   xmlns:dc="http://purl.org/dc/elements/1.1/">
  <sodipodi:namedview
     id="namedview1"
     pagecolor="#ffffff"
     bordercolor="#000000"
     borderopacity="0.25"
     inkscape:showpageshadow="2"
     inkscape:pageopacity="0.0"
     inkscape:pagecheckerboard="0"
     inkscape:deskcolor="#d1d1d1"
     inkscape:zoom="0.62824339"
     inkscape:cx="288.1049"
     inkscape:cy="249.10728"
     inkscape:window-width="990"
     inkscape:window-height="990"
     inkscape:window-x="20"
     inkscape:window-y="20"
     inkscape:window-maximized="0"
     inkscape:current-layer="layer2" />
  <metadata
     id="metadata14">
    <rdf:RDF>
      <cc:Work
         rdf:about="">
        <dc:format>image/svg+xml</dc:format>
        <dc:type
           rdf:resource="http://purl.org/dc/dcmitype/StillImage" />
      </cc:Work>
    </rdf:RDF>
  </metadata>
  <defs
     id="defs12">
    <radialGradient
       inkscape:collect="always"
       xlink:href="#linearGradient3322"
       id="radialGradient3328"
       cx="238.16667"
       cy="616.52887"
       fx="238.16667"
       fy="616.52887"
       r="99.166664"
       gradientUnits="userSpaceOnUse"
       gradientTransform="matrix(2.879852,0,0,2.879852,-1111.3216,-1775.0071)" />
    <linearGradient
       id="linearGradient3322">
      <stop
         style="stop-color:#313163;stop-opacity:1;"
         offset="0"
         id="stop3324" />
      <stop
         id="stop3330"
         offset="0.98000002"
         style="stop-color:#313163;stop-opacity:0.99607843;" />
      <stop
         style="stop-color:#bcbcde;stop-opacity:0.99163181;"
         offset="1"
         id="stop3326" />
    </linearGradient>
    <linearGradient
       inkscape:collect="always"
       xlink:href="#linearGradient2456"
       id="linearGradient3240"
       x1="139.00002"
       y1="616.52887"
       x2="337.33334"
       y2="616.52887"
       gradientUnits="userSpaceOnUse" />
    <linearGradient
       id="linearGradient2456">
      <stop
         style="stop-color:#596dbd;stop-opacity:1;"
         offset="0"
         id="stop2458" />
      <stop
         id="stop3242"
         offset="0.75"
         style="stop-color:#4f63b3;stop-opacity:1;" />
      <stop
         style="stop-color:#4f63b3;stop-opacity:1;"
         offset="1"
         id="stop2460" />
    </linearGradient>
    <filter
       inkscape:collect="always"
       id="filter7428"
       x="-0.023996374"
       y="-0.023996374"
       width="1.0479927"
       height="1.0479927">
      <feGaussianBlur
         inkscape:collect="always"
         stdDeviation="1.9830336"
         id="feGaussianBlur7430" />
    </filter>
    <filter
       inkscape:collect="always"
       id="filter3865"
       x="-0.023970774"
       y="-0.024029298"
       width="1.0479415"
       height="1.0480586">
      <feGaussianBlur
         inkscape:collect="always"
         stdDeviation="0.42943799"
         id="feGaussianBlur3867" />
    </filter>
    <filter
       inkscape:collect="always"
       id="filter3885"
       x="-0.038023859"
       y="-0.14937224"
       width="1.0760477"
       height="1.2987445">
      <feGaussianBlur
         inkscape:collect="always"
         stdDeviation="1.3664063"
         id="feGaussianBlur3887" />
    </filter>
    <filter
       inkscape:collect="always"
       id="filter7440"
       x="-0.0037636733"
       y="-0.014785146"
       width="1.0075273"
       height="1.0295703">
      <feGaussianBlur
         inkscape:collect="always"
         stdDeviation="0.21773438"
         id="feGaussianBlur7442" />
    </filter>
    <filter
       inkscape:collect="always"
       id="filter3265"
       x="-0.060042188"
       y="-0.052868773"
       width="1.1202556"
       height="1.1057345">
      <feGaussianBlur
         inkscape:collect="always"
         stdDeviation="1.644365"
         id="feGaussianBlur3267" />
    </filter>
    <linearGradient
       inkscape:collect="always"
       xlink:href="#linearGradient3194"
       id="linearGradient3200"
       x1="356.25302"
       y1="220.4028"
       x2="356.25302"
       y2="525.409"
       gradientUnits="userSpaceOnUse"
       gradientTransform="translate(-69.999987,-99.028453)" />
    <linearGradient
       id="linearGradient3194">
      <stop
         style="stop-color:#5468b8;stop-opacity:1;"
         offset="0"
         id="stop3196" />
      <stop
         id="stop3214"
         offset="0.66000003"
         style="stop-color:#212142;stop-opacity:1;" />
      <stop
         style="stop-color:#212142;stop-opacity:1;"
         offset="1"
         id="stop3198" />
    </linearGradient>
    <filter
       inkscape:collect="always"
       id="filter3210"
       x="-0.0064176553"
       y="-0.005633384"
       width="1.0128353"
       height="1.0112668">
      <feGaussianBlur
         inkscape:collect="always"
         stdDeviation="0.71582755"
         id="feGaussianBlur3212" />
    </filter>
  </defs>
  <g
     inkscape:groupmode="layer"
     id="layer2"
     inkscape:label="logo"
     style="display:inline"
     transform="matrix(0.7990114,0,0,0.7912642,3.0959497,7.1939473)">
    <g
       id="g1"
       transform="matrix(1.0460594,0,0,1.0798618,-5.7130056,-16.038237)">
      <circle
         inkscape:label="#path2454"
         transform="rotate(-135)"
         id="path3316"
         style="display:inline;opacity:1;fill:url(#radialGradient3328);fill-opacity:1;stroke-width:2.87985"
         cx="-425.4368"
         cy="0.50479203"
         r="285.58533" />
      <circle
         inkscape:label="#path2454"
         transform="matrix(-1.981587,-1.981587,1.981587,-1.981587,-451.28333,1990.3295)"
         id="circleMain"
         style="fill:url(#linearGradient3240);fill-opacity:1;filter:url(#filter7428)"
         cx="238.16667"
         cy="616.52887"
         r="99.166664" />
      <path
         transform="matrix(2.7108435,0,0,2.7108435,-206.86747,-1312.0653)"
         sodipodi:nodetypes="cccsccs"
         id="path3328"
         d="m 112.55555,523.62798 c -6.16962,6.37822 -12.19448,13.54035 -15.142581,22.09396 -0.411424,1.18617 -1.41589,3.51475 -1.591967,3.90504 4.763688,-9.1008 10.776498,-17.38769 18.083348,-24.68856 7.3,-7.29402 15.82377,-13.44748 24.91281,-18.20288 -4.22381,1.90589 -8.76311,3.18172 -12.60028,5.87394 -4.93253,3.22928 -9.57559,6.79462 -13.66133,11.0185 z"
         style="display:inline;fill:#ffffff;fill-opacity:1;fill-rule:evenodd;stroke:none;stroke-width:0.1;stroke-linecap:butt;stroke-linejoin:miter;stroke-miterlimit:4;stroke-dasharray:none;stroke-opacity:1;filter:url(#filter3865)" />
      <path
         transform="matrix(2.7108435,0,0,2.7108435,-206.86747,-1312.0653)"
         inkscape:label="#wihteCornerLineShadow"
         id="whiteCornerLineShadow"
         d="m 117.375,621.96875 v 32.0625 3.28125 h 3.3125 135.53125 v -3.28125 H 120.6875 v -32.0625 z"
         style="display:inline;fill:#ffffff;fill-opacity:1;stroke:#ffffff;stroke-width:4;stroke-linecap:round;stroke-linejoin:round;stroke-miterlimit:4;stroke-dasharray:none;stroke-opacity:1;filter:url(#filter3885)" />
      <path
         transform="matrix(2.7108435,0,0,2.7108435,-206.86747,-1312.0653)"
         id="rect3869"
         d="m 117.375,621.96875 v 32.0625 3.28125 h 3.3125 135.53125 v -3.28125 H 120.6875 v -32.0625 z"
         style="display:inline;fill:#212142;fill-opacity:1;stroke:none;stroke-width:1.9;stroke-linecap:round;stroke-linejoin:round;stroke-miterlimit:4;stroke-dasharray:none;stroke-opacity:1;filter:url(#filter7440)" />
      <path
         transform="matrix(2.7108435,0,0,2.7108435,-206.86747,-1312.0653)"
         sodipodi:nodetypes="cccccccccccccccccccccccc"
         id="path3263"
         d="m 156.172,633.50036 c 15.96504,7.48334 34.55853,7.46681 51.54322,4.11774 14.58124,-3.87731 28.96507,-16.35082 27.94176,-32.57224 -0.9496,-14.92564 -15.55088,-24.16343 -29.10373,-26.38627 -13.33033,-2.32831 -27.78274,-0.0458 -40.05748,-6.96353 -6.64247,-3.24681 -11.32709,-11.87417 -6.91128,-18.70348 5.10874,-10.09982 17.88524,-11.9677 28.04954,-12.06179 9.28353,0.82401 20.66041,1.97925 25.32218,11.90234 2.84228,8.233 14.02424,13.15648 17.84393,4.94427 0.67569,-7.66915 -0.36617,-14.39135 -0.0906,-22.10553 -2.50028,-8.73837 -13.95801,-7.27771 -17.61303,-2.16496 -11.0309,-4.39615 -23.26947,-5.12871 -35.01509,-4.5602 -14.79351,2.15286 -31.39427,9.17177 -36.6897,24.34139 -4.50133,12.89031 4.94863,26.13456 16.54627,31.21878 13.86602,7.16971 29.85998,6.05494 44.85396,8.21251 8.5545,1.11091 18.8637,9.62413 15.7284,18.84767 -2.32286,10.26096 -13.04179,14.76009 -22.52745,15.66987 -11.57543,1.27848 -24.89802,1.18823 -34.37632,-6.53232 -7.20555,-4.64919 -5.39812,-16.47796 -14.30699,-18.96125 -5.5739,-1.41691 -11.70959,2.70684 -10.08627,8.63399 0.0494,7.80186 0.0987,15.60372 0.14813,23.40557 1.23128,8.96238 16.55877,10.5106 18.36405,1.22664 l 0.43653,-1.5092 z"
         style="display:inline;fill:#ffffff;fill-opacity:1;fill-rule:evenodd;stroke:#ffffff;stroke-width:4;stroke-linecap:butt;stroke-linejoin:miter;stroke-miterlimit:4;stroke-dasharray:none;stroke-opacity:1;filter:url(#filter3265)" />
      <path
         sodipodi:nodetypes="cccccccccccccccccccccccc"
         id="lightBlueSlackwareS"
         d="m 216.49038,405.2556 c 43.27873,20.28616 93.68277,20.24135 139.7256,11.16255 39.52746,-10.51078 78.51978,-44.32452 75.74574,-88.29825 -2.57421,-40.46107 -42.156,-65.50328 -78.89565,-71.52905 -36.13644,-6.31168 -75.31466,-0.12407 -108.58956,-18.87704 -18.0067,-8.80159 -30.70597,-32.18899 -18.7354,-50.70218 13.84899,-27.37903 48.48408,-32.44256 76.03791,-32.69762 25.1662,2.23376 56.00714,5.36544 68.64447,32.26538 7.70497,22.31837 38.01752,35.66516 48.3721,13.40314 1.83169,-20.78986 -0.99263,-39.0127 -0.24568,-59.92463 -6.77787,-23.68835 -37.83799,-19.72873 -47.74617,-5.86887 -29.90305,-11.91727 -63.07989,-13.90313 -94.92043,-12.36199 -40.10289,5.83607 -85.10495,24.86324 -99.46004,65.9857 -12.2024,34.94361 13.41497,70.84668 44.85435,84.6292 37.58861,19.43596 80.94573,16.414 121.59207,22.26283 23.18991,3.0115 51.13654,26.08951 42.63723,51.09308 -6.29691,27.81586 -35.35425,40.0123 -61.06839,42.47857 -31.37918,3.46576 -67.49464,3.22111 -93.18883,-17.7081 -19.53311,-12.60322 -14.63345,-44.66917 -38.78401,-51.40098 -15.10997,-3.84102 -31.74286,7.33782 -27.3423,23.4054 0.13384,21.14962 0.2677,42.29924 0.40156,63.44883 3.33781,24.29561 44.88824,28.4926 49.78207,3.32523 z"
         style="display:inline;overflow:visible;visibility:visible;fill:url(#linearGradient3200);fill-opacity:1;fill-rule:evenodd;stroke:none;stroke-width:1px;stroke-linecap:butt;stroke-linejoin:miter;stroke-miterlimit:4;stroke-dasharray:none;stroke-dashoffset:0;stroke-opacity:1;marker:none;marker-start:none;marker-mid:none;marker-end:none;filter:url(#filter3210);enable-background:accumulate" />
    </g>
  </g>
</svg>
